<?xml version="1.0" encoding="utf-8"?>
<!-- Generator: Adobe Illustrator 27.8.1, SVG Export Plug-In . SVG Version: 6.00 Build 0)  -->
<svg version="1.1" id="Layer_1" xmlns="http://www.w3.org/2000/svg" xmlns:xlink="http://www.w3.org/1999/xlink" x="0px" y="0px"
	 viewBox="0 0 512 512" style="enable-background:new 0 0 512 512;" xml:space="preserve">
<style type="text/css">
	.st0{fill:#000E54;}
</style>
<g>
	<path class="st0" d="M255.5,340.5c-64.3,0-128.5,0-192.8,0c-19.6,0-36.5-6.5-48.8-22.3c-6.9-8.9-11.4-19-11.4-30.5
		c-0.2-53-0.2-105.9-0.3-158.9c0-13.4,0.2-26.8,0-40.2c-0.7-33,24.9-58.4,58.4-58.4c130.2-0.2,260.3-0.2,390.5,0
		c33.5,0,58.3,24.3,58.6,57.7c0.4,65,0.5,129.9,0,194.9c-0.2,34-25.4,57.7-59.9,57.7C385,340.5,320.3,340.5,255.5,340.5z
		 M58.2,283.9c132.3,0,263.8,0,395.5,0c0-65.9,0-131.5,0-197c-132.1,0-263.7,0-395.5,0C58.2,152.8,58.2,218.1,58.2,283.9z"/>
	<path class="st0" d="M2.5,439.4c0-5.9-0.2-11.8,0.1-17.6c0.6-11.3,8.9-21.9,20.1-22.9c13.7-1.2,27.7-1.4,41.3-0.2
		c13.1,1.2,21.1,11.2,21.7,24.6c0.4,10.8,0.5,21.6,0,32.4c-0.6,14.4-9.9,24.5-24.1,25.6c-11.4,0.9-23.1,0.9-34.5,0.1
		C12,480.2,3,470.1,2.4,454.9c-0.2-5.2,0-10.3,0-15.5C2.4,439.4,2.5,439.4,2.5,439.4z"/>
	<path class="st0" d="M143.8,439.5c0-5.9-0.2-11.8,0-17.6c0.5-11.4,8.8-22.1,20-23c13.9-1.2,28.1-1.4,42-0.1
		c12.2,1.1,20.5,11.3,21.1,23.6c0.5,11,0.5,22.1,0.1,33.1c-0.6,14.7-10.1,24.8-24.7,25.8c-11.2,0.8-22.6,0.8-33.8,0
		c-15.2-1.1-24.2-11.1-24.8-26.3c-0.2-5.2,0-10.3,0-15.5C143.7,439.5,143.7,439.5,143.8,439.5z"/>
	<path class="st0" d="M368.3,439.7c0,5.4,0.3,10.8,0,16.2c-0.8,14-9.8,24.1-23.8,25.2c-11.9,0.9-24,0.9-35.9,0
		c-14.4-1.2-23.2-11.3-23.7-25.8c-0.3-9.6,0.1-19.3-0.2-28.9c-0.5-14.8,8.9-27.7,24.9-28.5c12.4-0.6,24.9-0.6,37.2,0.7
		c12.7,1.4,20.6,11.3,21.4,24.2C368.6,428.4,368.3,434.1,368.3,439.7z"/>
	<path class="st0" d="M509.5,440c0,5.4,0.3,10.8-0.1,16.2c-0.9,13.6-9.7,23.8-23.3,24.9c-12.1,1-24.5,1-36.6,0
		c-14-1.2-22.9-11.4-23.3-25.4c-0.3-9.9,0.1-19.8-0.3-29.6c-0.5-14.5,9.2-27.4,24.5-28.1c12.4-0.6,24.9-0.7,37.2,0.6
		c13.2,1.5,21.1,11.2,21.8,24.5C509.8,428.7,509.6,434.4,509.5,440C509.6,440,509.5,440,509.5,440z"/>
</g>
</svg>
